<svg width="979" height="224" viewBox="0 0 979 224" fill="none" xmlns="http://www.w3.org/2000/svg">
<path d="M70.3761 185.911L50.7909 202.825L53.8053 178.661C54.857 170.487 61.0431 168.26 67.4362 171.551L104.917 199.487L184.873 96.3732L5.81543 127.717L46.3273 156.065C48.9276 157.61 51.6025 158.72 54.799 156.383L150.588 116.439" stroke="black" stroke-width="10" stroke-linecap="round" stroke-linejoin="round"/>
<path d="M100.834 98.9658C102.482 80.251 107.716 63.0264 115.567 48.5886C116.884 46.159 118.283 43.8148 119.741 41.5482C134.158 19.255 155.317 5.17419 178.91 5.17419C222.345 5.17419 257.549 52.8812 257.549 111.735C257.549 170.588 222.337 218.295 178.91 218.295C158.53 218.295 139.955 207.785 125.985 190.553" stroke="#778FCC" stroke-width="10" stroke-linecap="round" stroke-linejoin="round"/>
<path d="M131.848 94.875C133.09 80.7554 137.04 67.7614 142.961 56.8709C143.955 55.039 145.007 53.2692 146.116 51.5615C156.99 34.7407 172.956 24.1219 190.752 24.1219C223.513 24.1219 250.071 60.1156 250.071 104.508C250.071 148.901 223.513 184.894 190.752 184.894C175.374 184.894 161.37 176.969 150.828 163.967" stroke="#778FCC" stroke-width="10" stroke-linecap="round" stroke-linejoin="round"/>
<path d="M166.927 85.4827C167.739 76.3155 170.297 67.8701 174.148 60.7987C174.794 59.6111 175.482 58.4622 176.194 57.3522C183.258 46.4307 193.626 39.53 205.186 39.53C226.469 39.53 243.719 62.91 243.719 91.7469C243.719 120.584 226.469 143.964 205.186 143.964C195.199 143.964 186.098 138.817 179.25 130.372" stroke="#778FCC" stroke-width="10" stroke-linecap="round" stroke-linejoin="round"/>
<path d="M330.875 86.375H321.625V121.25H329.875C330.375 121.25 330.875 121.25 331.375 121.25C340.292 120.583 344.75 114.708 344.75 103.625C344.75 102.458 344.708 101.333 344.625 100.25C343.625 91 339.042 86.375 330.875 86.375ZM334.125 158H296.25V154.625H306.25V86.375H296.25V83H336.5C342.083 83 346.833 83.9583 350.75 85.875C357.75 89.2917 361.25 94.9583 361.25 102.875C361.25 106.292 360.583 109.417 359.25 112.25C355.25 120.75 346.208 125 332.125 125H321.625V154.625H330.75C332.5 154.792 333.625 155.917 334.125 158ZM411.875 159.25C405.292 159.167 401.333 155.375 400 147.875C399.417 149.375 398.625 150.833 397.625 152.25C393.958 156.917 388.833 159.25 382.25 159.25C379.917 159.25 377.75 158.917 375.75 158.25C369.5 156.167 366.375 151.542 366.375 144.375C366.458 133.292 377.417 127.583 399.25 127.25V119.25C399.25 117.667 399.167 116.208 399 114.875C398.167 108.958 395.25 106 390.25 106C388.917 106 387.708 106.25 386.625 106.75C385.042 107.583 383.75 109.708 382.75 113.125C382.417 114.125 382.167 114.833 382 115.25C380.833 118.333 378.75 119.875 375.75 119.875C375 119.875 374.25 119.75 373.5 119.5C370.833 118.667 369.5 116.833 369.5 114C369.5 112.5 369.958 111.083 370.875 109.75C373.958 105.083 380.75 102.75 391.25 102.75C393.583 102.75 395.792 102.958 397.875 103.375C408.042 105.375 413.125 111.75 413.125 122.5V148.75C413.125 152.75 414.083 154.833 416 155C418.5 154.917 420 151.958 420.5 146.125L423.75 146.25C423.583 148.583 423.292 150.583 422.875 152.25C421.458 156.917 417.792 159.25 411.875 159.25ZM388 154C389 154 390.083 153.75 391.25 153.25C395.167 151.5 397.833 147.792 399.25 142.125V130.75C395.083 130.833 391.667 131.25 389 132C383.333 133.5 380.5 137.083 380.5 142.75C380.5 143.167 380.5 143.583 380.5 144C380.833 150.667 383.333 154 388 154ZM448.75 178.5H455.875C456.375 178.5 456.875 178.542 457.375 178.625C458.458 178.875 459 179.917 459 181.75H427.125V178.5C428.958 178.5 430.417 178.333 431.5 178C433.833 177.333 435 175.25 435 171.75V107.625H427.125V104.5H447.875L448.5 117C449.333 114.667 450.542 112.5 452.125 110.5C456.292 105.333 461.833 102.75 468.75 102.75C473.417 102.75 477.542 104.208 481.125 107.125C487.042 111.958 490 119.458 490 129.625C490 137.875 487.792 144.708 483.375 150.125C478.375 156.208 471.917 159.25 464 159.25C457.333 159.167 452.25 157.167 448.75 153.25V178.5ZM463 108.5C460.417 108.5 458.042 109.417 455.875 111.25C451.042 115.583 448.625 123.042 448.625 133.625C448.625 138.875 449.333 143.375 450.75 147.125C453.083 153.042 456.792 156 461.875 156C462.958 156 463.958 155.875 464.875 155.625C471.625 153.625 475 145.5 475 131.25C474.917 116.25 470.917 108.667 463 108.5ZM525.5 106C524.583 106 523.625 106.125 522.625 106.375C516.708 108.208 513.583 115.042 513.25 126.875L522.875 127.25C526.375 127.333 529.042 127.125 530.875 126.625C533.708 125.625 535.125 123.167 535.125 119.25C535.125 117.833 535 116.458 534.75 115.125C533.75 109.042 530.667 106 525.5 106ZM548.375 145.375C547.875 146.625 547.25 147.875 546.5 149.125C542.25 155.875 535.375 159.25 525.875 159.25C520.292 159.25 515.25 158 510.75 155.5C502.333 150.583 498.125 142.417 498.125 131C498.125 124 499.917 118.042 503.5 113.125C508.583 106.208 515.917 102.75 525.5 102.75C530.75 102.75 535.458 103.75 539.625 105.75C546.292 109.083 549.625 114.042 549.625 120.625C549.625 122.458 549.208 124.042 548.375 125.375C545.875 129.208 538.375 131 525.875 130.75L513.25 130.5C513.25 130.583 513.25 130.667 513.25 130.75C513.667 147.333 518.75 155.625 528.5 155.625C530.333 155.625 532.125 155.333 533.875 154.75C539.125 153.083 542.958 149.625 545.375 144.375L548.375 145.375ZM586.875 154.75C587.292 154.75 587.667 154.792 588 154.875C589.25 155.042 589.875 156.083 589.875 158H556V154.75C557.667 154.75 559.042 154.625 560.125 154.375C562.625 153.708 563.875 151.583 563.875 148V107.625H556V104.5H576.625L577.375 116.25C578.375 113.833 579.75 111.667 581.5 109.75C585.5 105.583 590.042 103.5 595.125 103.5C596.125 103.5 597.125 103.625 598.125 103.875C602.042 104.875 604 107.375 604 111.375C604 112.375 603.792 113.333 603.375 114.25C602.125 117.167 600 118.625 597 118.625C596.167 118.625 595.375 118.5 594.625 118.25C593.042 117.75 591.542 116.167 590.125 113.5C589.042 111.583 587.958 110.625 586.875 110.625C586.208 110.625 585.417 110.917 584.5 111.5C580.583 114.25 578.333 119.625 577.75 127.625V154.75H586.875ZM666.875 86.375H657.625V121.25H665.875C666.375 121.25 666.875 121.25 667.375 121.25C676.292 120.583 680.75 114.708 680.75 103.625C680.75 102.458 680.708 101.333 680.625 100.25C679.625 91 675.042 86.375 666.875 86.375ZM670.125 158H632.25V154.625H642.25V86.375H632.25V83H672.5C678.083 83 682.833 83.9583 686.75 85.875C693.75 89.2917 697.25 94.9583 697.25 102.875C697.25 106.292 696.583 109.417 695.25 112.25C691.25 120.75 682.208 125 668.125 125H657.625V154.625H666.75C668.5 154.792 669.625 155.917 670.125 158ZM718.5 131C718.5 136.917 718.917 141.667 719.75 145.25C721.417 152.417 725.375 156 731.625 156C733.708 156 735.583 155.583 737.25 154.75C742.333 152 744.875 143.917 744.875 130.5C744.875 124.833 744.458 120.25 743.625 116.75C741.958 109.583 737.958 106 731.625 106C729.208 106 727.083 106.542 725.25 107.625C720.75 110.542 718.5 118.333 718.5 131ZM732.125 102.75C738.792 102.75 744.542 104.542 749.375 108.125C756.375 113.292 759.875 120.75 759.875 130.5C759.875 137.75 757.708 144 753.375 149.25C747.875 155.917 740.5 159.25 731.25 159.25C724.5 159.25 718.625 157.25 713.625 153.25C706.792 147.75 703.375 140.167 703.375 130.5C703.375 123.5 705.458 117.5 709.625 112.5C715.125 106 722.625 102.75 732.125 102.75ZM797.875 154.75C798.292 154.75 798.667 154.792 799 154.875C800.25 155.042 800.875 156.083 800.875 158H767V154.75C768.667 154.75 770.042 154.625 771.125 154.375C773.625 153.708 774.875 151.583 774.875 148V107.625H767V104.5H787.625L788.375 116.25C789.375 113.833 790.75 111.667 792.5 109.75C796.5 105.583 801.042 103.5 806.125 103.5C807.125 103.5 808.125 103.625 809.125 103.875C813.042 104.875 815 107.375 815 111.375C815 112.375 814.792 113.333 814.375 114.25C813.125 117.167 811 118.625 808 118.625C807.167 118.625 806.375 118.5 805.625 118.25C804.042 117.75 802.542 116.167 801.125 113.5C800.042 111.583 798.958 110.625 797.875 110.625C797.208 110.625 796.417 110.917 795.5 111.5C791.583 114.25 789.333 119.625 788.75 127.625V154.75H797.875ZM817.75 108.125V104.875H826.375V93L840.125 90.375V104.875H857.625V108.125H840.125V146C840.125 146.833 840.167 147.667 840.25 148.5C840.833 153.25 842.875 155.625 846.375 155.625C850.458 155.542 853.417 151.792 855.25 144.375L858.625 144.875C858.125 147.458 857.458 149.667 856.625 151.5C854.292 156.75 849.833 159.375 843.25 159.375C832.75 158.958 827.125 152.708 826.375 140.625V108.125H817.75ZM907.875 159.25C901.292 159.167 897.333 155.375 896 147.875C895.417 149.375 894.625 150.833 893.625 152.25C889.958 156.917 884.833 159.25 878.25 159.25C875.917 159.25 873.75 158.917 871.75 158.25C865.5 156.167 862.375 151.542 862.375 144.375C862.458 133.292 873.417 127.583 895.25 127.25V119.25C895.25 117.667 895.167 116.208 895 114.875C894.167 108.958 891.25 106 886.25 106C884.917 106 883.708 106.25 882.625 106.75C881.042 107.583 879.75 109.708 878.75 113.125C878.417 114.125 878.167 114.833 878 115.25C876.833 118.333 874.75 119.875 871.75 119.875C871 119.875 870.25 119.75 869.5 119.5C866.833 118.667 865.5 116.833 865.5 114C865.5 112.5 865.958 111.083 866.875 109.75C869.958 105.083 876.75 102.75 887.25 102.75C889.583 102.75 891.792 102.958 893.875 103.375C904.042 105.375 909.125 111.75 909.125 122.5V148.75C909.125 152.75 910.083 154.833 912 155C914.5 154.917 916 151.958 916.5 146.125L919.75 146.25C919.583 148.583 919.292 150.583 918.875 152.25C917.458 156.917 913.792 159.25 907.875 159.25ZM884 154C885 154 886.083 153.75 887.25 153.25C891.167 151.5 893.833 147.792 895.25 142.125V130.75C891.083 130.833 887.667 131.25 885 132C879.333 133.5 876.5 137.083 876.5 142.75C876.5 143.167 876.5 143.583 876.5 144C876.833 150.667 879.333 154 884 154ZM952.75 154.75C953.25 154.75 953.75 154.792 954.25 154.875C955.333 155.125 955.875 156.167 955.875 158H923V154.75C925.667 154.75 927.625 154.583 928.875 154.25C931.375 153.5 932.625 151.333 932.625 147.75V80H923V76.75H946.375V154.75H952.75Z" fill="black"/>
</svg>
